<?xml version="1.0" encoding="UTF-8"?>
<svg xmlns="http://www.w3.org/2000/svg" xmlns:xlink="http://www.w3.org/1999/xlink" width="96pt" height="96pt" viewBox="0 0 96 96" version="1.1">
<g id="surface1">
<path style=" stroke:none;fill-rule:nonzero;fill:#FFFFFF;fill-opacity:1;" d="M 82.125 9.84375 C 79.453125 11.875 77.640625 13.796875 76.59375 16.03125 C 76.5 16.25 76.578125 16.46875 76.5 16.6875 L 76.40625 16.59375 C 75.765625 18 75.34375 18.4375 75.09375 18.65625 C 74.84375 18.875 74.609375 19.0625 73.6875 19.40625 C 71.84375 20.109375 68.375 21.421875 63.46875 25.875 C 59.671875 29.3125 57.1875 34.21875 54.28125 39.09375 C 51.375 43.96875 48.1875 48.859375 43.6875 52.3125 C 38.53125 56.28125 33.953125 57.828125 29.625 59.25 C 25.296875 60.671875 20.9375 61.890625 17.25 65.34375 C 16 66.515625 15.21875 67.859375 14.25 69.28125 C 13.28125 70.703125 12.46875 71.90625 12.46875 71.90625 L 12 72.65625 L 12 77.34375 L 13.03125 78.28125 C 14.71875 79.78125 19.6875 84 27.28125 84 C 68.390625 84 84 56.796875 84 40.59375 C 84 31.078125 82.1875 25.359375 81.75 22.03125 C 81.53125 20.359375 81.59375 19.5 82.03125 18.5625 C 82.46875 17.625 83.5 16.359375 85.78125 14.625 Z M 76.125 24.84375 C 76.828125 28.75 78 33.078125 78 40.59375 C 78 52.875 65.75 78 27.28125 78 C 23.8125 78 21.359375 76.921875 19.59375 75.75 C 43.125 74.84375 66.375 59.625 72.28125 37.96875 L 69.375 37.21875 C 63.875 57.40625 41.546875 72.046875 19.125 72.75 C 19.15625 72.703125 19.171875 72.71875 19.21875 72.65625 C 20.125 71.328125 21.484375 69.640625 21.375 69.75 C 23.828125 67.453125 27.0625 66.421875 31.5 64.96875 C 35.9375 63.515625 41.4375 61.53125 47.34375 57 C 52.859375 52.765625 56.4375 47.234375 59.4375 42.1875 C 62.4375 37.140625 64.953125 32.578125 67.5 30.28125 C 71.890625 26.296875 73.90625 25.765625 75.84375 25.03125 C 75.9375 25 76.03125 24.875 76.125 24.84375 Z "/>
</g>
</svg>
