<?xml version="1.0" encoding="UTF-8"?>
<svg xmlns="http://www.w3.org/2000/svg" xmlns:xlink="http://www.w3.org/1999/xlink" width="96pt" height="96pt" viewBox="0 0 96 96" version="1.1">
<g id="surface1">
<path style=" stroke:none;fill-rule:nonzero;fill:#FFFFFF;fill-opacity:1;" d="M 21.914063 12 L 13.992188 33.128906 L 20.414063 33.128906 L 26.085938 18 L 69.925781 18 L 75.597656 33.128906 L 81.996094 33.128906 L 74.074219 12 Z M 6 36 L 6 54 L 9.773438 54 L 18.773438 84 L 77.238281 84 L 86.238281 54 L 90 54 L 90 36 Z M 12 42 L 84 42 L 84 48 L 81.761719 48 L 72.761719 78 L 23.226563 78 L 14.226563 48 L 12 48 Z M 33 51 L 33 72 L 39 72 L 39 51 Z M 45 51 L 45 72 L 51 72 L 51 51 Z M 57 51 L 57 72 L 63 72 L 63 51 Z "/>
</g>
</svg>
