<?xml version="1.0" encoding="UTF-8"?>
<svg xmlns="http://www.w3.org/2000/svg" xmlns:xlink="http://www.w3.org/1999/xlink" width="100pt" height="100pt" viewBox="0 0 100 100" version="1.1">
<g id="surface1">
<path style=" stroke:none;fill-rule:nonzero;fill:#FFFFFF;fill-opacity:1;" d="M 78 3.84375 L 66.875 8.296875 L 60 15.171875 L 60 24 C 59.945313 24 57.882813 23.9375 56 23.882813 L 56 22 C 56.007813 21.460938 55.796875 20.9375 55.414063 20.554688 C 55.03125 20.171875 54.507813 19.960938 53.96875 19.96875 C 52.867188 19.992188 51.984375 20.898438 52 22 L 52 23.84375 C 50.054688 23.828125 48.0625 23.867188 46 23.9375 L 46 22 C 46.007813 21.460938 45.796875 20.9375 45.414063 20.554688 C 45.03125 20.171875 44.507813 19.960938 43.96875 19.96875 C 42.867188 19.992188 41.984375 20.898438 42 22 L 42 24.117188 C 39.046875 24.273438 36.398438 24.476563 34 24.710938 L 34 22 C 34.007813 21.460938 33.796875 20.9375 33.414063 20.554688 C 33.03125 20.171875 32.507813 19.960938 31.96875 19.96875 C 30.867188 19.992188 29.984375 20.898438 30 22 L 30 25.132813 C 27.046875 25.492188 24.765625 25.84375 23.671875 26.03125 C 23.0625 26.132813 22.578125 26.226563 22 26.328125 L 22 22.804688 C 22.007813 22.257813 21.796875 21.742188 21.414063 21.359375 C 21.03125 20.976563 20.507813 20.765625 19.96875 20.773438 C 18.867188 20.789063 17.984375 21.695313 18 22.804688 L 18 27.054688 C 13.359375 27.960938 10.0625 28.789063 8 29.351563 L 8 25.53125 C 8.101563 24.953125 7.9375 24.351563 7.546875 23.898438 C 7.164063 23.445313 6.59375 23.1875 6 23.195313 L 6 27.195313 L 4 25.195313 L 4 48 C 4 48.171875 4.023438 48.34375 4.0625 48.507813 C 4.023438 48.671875 4 48.835938 4 49 L 4 94 C 4 95.101563 4.898438 96 6 96 L 94 96 C 95.101563 96 96 95.101563 96 94 L 96 15.171875 L 89.125 8.296875 Z M 78 8.15625 L 86.875 11.703125 L 92 16.828125 L 92 33.570313 C 90.640625 33.421875 89.289063 33.265625 88 33.148438 L 88 22 C 88 20.898438 87.101563 20 86 20 L 70 20 C 68.898438 20 68 20.898438 68 22 L 68 31.9375 C 66.570313 31.898438 65.234375 31.867188 64 31.84375 L 64 16.828125 L 69.125 11.703125 Z M 78 12 C 76.898438 12 76 12.898438 76 14 C 76 15.101563 76.898438 16 78 16 C 79.101563 16 80 15.101563 80 14 C 80 12.898438 79.101563 12 78 12 Z M 72 24 L 84 24 L 84 32.796875 C 79.398438 32.421875 75.367188 32.203125 72 32.070313 Z M 60 26 L 60 31.78125 C 58.703125 31.789063 57.359375 31.828125 56 31.890625 L 56 27.890625 C 57.859375 27.9375 59.90625 28 59.90625 28 Z M 49.460938 27.835938 C 50.359375 27.820313 51.148438 27.835938 52 27.84375 L 52 32.132813 C 49.882813 32.296875 47.875 32.507813 46 32.765625 L 46 27.9375 C 47.148438 27.898438 48.296875 27.84375 49.460938 27.835938 Z M 42 28.125 L 42 33.398438 C 38.921875 33.9375 36.3125 34.554688 34 35.15625 L 34 28.726563 C 36.375 28.492188 39.039063 28.28125 42 28.125 Z M 30 29.164063 L 30 36.210938 C 27.171875 36.945313 24.5625 37.664063 22 38.507813 L 22 30.398438 C 22.789063 30.25 23.46875 30.117188 24.328125 29.96875 C 25.320313 29.804688 27.390625 29.492188 30 29.164063 Z M 18 31.132813 L 18 39.601563 C 18 39.726563 18.007813 39.851563 18.03125 39.96875 C 16.828125 40.460938 15.617188 40.976563 14.328125 41.59375 C 14.320313 41.601563 14.3125 41.601563 14.304688 41.609375 C 11.835938 42.84375 9.773438 44.070313 8 45.21875 L 8 33.492188 C 9.671875 33.007813 13.007813 32.125 18 31.132813 Z M 61.46875 35.78125 C 63.523438 35.796875 65.960938 35.882813 68.632813 35.960938 C 60.914063 41.289063 51.484375 49.796875 42.460938 60.726563 C 37.054688 67.25 32.265625 74.625 28.679688 80.742188 C 25.710938 85.789063 23.695313 89.6875 22.679688 92 L 8 92 L 8 75.914063 C 14.085938 68.34375 22.8125 59.296875 34.773438 50.617188 L 34.78125 50.617188 L 34.789063 50.609375 C 43.851563 43.914063 52.726563 39.171875 60.03125 35.8125 L 60.023438 35.789063 C 60.5 35.789063 60.976563 35.773438 61.46875 35.78125 Z M 75.625 36.296875 C 77.492188 36.398438 79.203125 36.484375 81.367188 36.65625 C 75.570313 42.984375 68.828125 51.382813 62.890625 61.15625 L 62.898438 61.15625 C 55.9375 72.5625 51.609375 83.328125 48.59375 92 L 27.125 92 C 28.21875 89.78125 29.914063 86.53125 32.125 82.757813 C 35.632813 76.78125 40.34375 69.554688 45.539063 63.28125 L 45.539063 63.273438 C 56.375 50.15625 68 40.554688 75.625 36.296875 Z M 50.125 36.304688 C 44.570313 39.257813 38.570313 42.84375 32.429688 47.382813 C 22.039063 54.921875 14.03125 62.726563 8 69.6875 L 8 50.117188 C 10.070313 48.648438 12.5625 46.953125 16.070313 45.195313 L 16.078125 45.195313 C 16.085938 45.195313 16.085938 45.1875 16.09375 45.1875 C 21.710938 42.476563 26.109375 41.335938 32.304688 39.742188 C 32.3125 39.734375 32.328125 39.734375 32.34375 39.726563 C 36.609375 38.53125 42.429688 37.0625 50.125 36.304688 Z M 86.40625 37.078125 C 87.921875 37.21875 89.484375 37.382813 91.085938 37.5625 C 87.023438 46.265625 82.992188 56.101563 79.304688 67.164063 L 79.3125 67.148438 C 76.289063 75.851563 73.992188 84.171875 72.21875 92 L 52.84375 92 C 55.789063 83.71875 59.890625 73.765625 66.3125 63.242188 C 72.796875 52.554688 80.382813 43.375 86.40625 37.078125 Z M 92 45.242188 L 92 92 L 76.320313 92 C 78.039063 84.5625 80.226563 76.6875 83.09375 68.460938 L 83.09375 68.4375 C 85.914063 59.992188 88.929688 52.28125 92 45.242188 Z "/>
</g>
</svg>
