<?xml version="1.0" encoding="UTF-8"?>
<svg xmlns="http://www.w3.org/2000/svg" xmlns:xlink="http://www.w3.org/1999/xlink" width="100pt" height="100pt" viewBox="0 0 100 100" version="1.1">
<g id="surface1">
<path style=" stroke:none;fill-rule:nonzero;fill:#FFFFFF;fill-opacity:1;" d="M 40.625 6.25 C 38.890625 6.25 37.5 7.640625 37.5 9.375 L 37.5 14.257813 C 35.011719 14.992188 32.667969 15.96875 30.46875 17.1875 L 27.003906 13.722656 C 25.78125 12.523438 23.78125 12.523438 22.558594 13.722656 L 13.722656 22.558594 C 12.523438 23.78125 12.523438 25.78125 13.722656 27.003906 L 17.238281 30.46875 C 15.992188 32.691406 15.015625 35.035156 14.308594 37.5 L 9.375 37.5 C 7.640625 37.5 6.25 38.890625 6.25 40.625 L 6.25 53.125 C 6.25 54.859375 7.640625 56.25 9.375 56.25 L 14.257813 56.25 C 14.992188 58.742188 15.96875 61.085938 17.1875 63.28125 L 13.722656 66.773438 C 12.523438 67.96875 12.523438 69.972656 13.722656 71.191406 L 22.558594 80.003906 C 23.78125 81.226563 25.78125 81.226563 27.003906 80.003906 L 30.46875 76.539063 C 32.667969 77.757813 35.011719 78.734375 37.5 79.46875 L 37.5 84.375 C 37.5 86.109375 38.890625 87.5 40.625 87.5 L 53.125 87.5 C 54.835938 87.5 56.226563 86.109375 56.25 84.375 L 56.25 79.492188 C 58.742188 78.761719 61.085938 77.785156 63.28125 76.5625 L 66.773438 80.003906 C 67.96875 81.226563 69.972656 81.226563 71.191406 80.003906 L 80.003906 71.191406 C 81.226563 69.972656 81.226563 67.96875 80.003906 66.773438 L 76.515625 63.28125 C 77.734375 61.085938 78.734375 58.742188 79.46875 56.25 L 84.375 56.25 C 86.109375 56.25 87.5 54.859375 87.5 53.125 L 87.5 40.625 C 87.5 38.890625 86.109375 37.5 84.375 37.5 L 79.445313 37.5 C 78.734375 35.035156 77.785156 32.667969 76.5625 30.445313 L 80.003906 27.003906 C 81.226563 25.78125 81.226563 23.78125 80.003906 22.558594 L 71.191406 13.722656 C 70.605469 13.136719 69.800781 12.816406 68.96875 12.816406 C 68.140625 12.816406 67.359375 13.136719 66.773438 13.722656 L 63.304688 17.1875 C 61.109375 15.941406 58.742188 14.964844 56.25 14.234375 L 56.25 9.375 C 56.25 7.640625 54.859375 6.25 53.125 6.25 Z M 43.75 12.5 L 50 12.5 L 50 16.261719 C 50 17.75 51.050781 19.019531 52.492188 19.335938 C 56.078125 20.042969 59.398438 21.460938 62.355469 23.4375 C 63.597656 24.242188 65.257813 24.074219 66.308594 23.023438 L 68.96875 20.363281 L 73.390625 24.78125 L 70.703125 27.441406 C 69.679688 28.515625 69.507813 30.152344 70.3125 31.398438 C 72.265625 34.300781 73.609375 37.648438 74.339844 41.261719 C 74.660156 42.699219 75.929688 43.75 77.417969 43.75 L 81.25 43.75 L 81.25 50 L 77.441406 50 C 75.953125 50 74.683594 51.050781 74.390625 52.515625 C 73.65625 56.054688 72.21875 59.351563 70.265625 62.304688 C 69.433594 63.550781 69.605469 65.1875 70.65625 66.234375 L 73.390625 68.96875 L 68.96875 73.390625 L 66.234375 70.679688 C 65.210938 69.628906 63.550781 69.457031 62.304688 70.289063 C 59.328125 72.242188 56.054688 73.707031 52.492188 74.414063 C 51.050781 74.707031 50 76 50 77.492188 L 50 81.25 L 43.75 81.25 L 43.75 77.441406 C 43.75 75.953125 42.699219 74.683594 41.234375 74.390625 C 37.695313 73.65625 34.398438 72.21875 31.445313 70.265625 C 30.199219 69.457031 28.539063 69.605469 27.492188 70.679688 L 24.78125 73.390625 L 20.363281 68.96875 L 23.070313 66.261719 C 24.121094 65.210938 24.292969 63.574219 23.488281 62.328125 C 21.507813 59.328125 20.042969 56.054688 19.335938 52.492188 C 19.019531 51.050781 17.75 50 16.261719 50 L 12.5 50 L 12.5 43.75 L 16.308594 43.75 C 17.796875 43.75 19.066406 42.699219 19.386719 41.261719 C 20.09375 37.695313 21.535156 34.398438 23.488281 31.445313 C 24.292969 30.199219 24.144531 28.539063 23.097656 27.492188 L 20.363281 24.78125 L 24.78125 20.363281 L 27.492188 23.070313 C 28.539063 24.121094 30.175781 24.292969 31.421875 23.488281 C 34.425781 21.507813 37.695313 20.042969 41.261719 19.335938 C 42.699219 19.019531 43.75 17.75 43.75 16.261719 Z M 47.414063 31.25 C 38.84375 30.957031 31.566406 37.746094 31.25 46.339844 C 30.957031 54.90625 37.746094 62.183594 46.339844 62.5 C 54.90625 62.792969 62.183594 56.007813 62.5 47.414063 C 62.792969 38.84375 56.007813 31.566406 47.414063 31.25 Z M 47.21875 37.5 C 52.417969 37.695313 56.445313 41.992188 56.25 47.21875 C 56.054688 52.417969 51.757813 56.445313 46.535156 56.25 C 41.332031 56.054688 37.304688 51.757813 37.5 46.535156 C 37.695313 41.332031 41.992188 37.304688 47.21875 37.5 Z "/>
</g>
</svg>
