<?xml version="1.0" encoding="UTF-8"?>
<svg xmlns="http://www.w3.org/2000/svg" xmlns:xlink="http://www.w3.org/1999/xlink" width="100pt" height="100pt" viewBox="0 0 100 100" version="1.1">
<g id="surface1">
<path style=" stroke:none;fill-rule:nonzero;fill:#FFFFFF;fill-opacity:1;" d="M 77.125 17.164063 C 71.914063 17.164063 61.546875 22.21875 50 38.960938 C 35.164063 60.460938 39.835938 78.835938 44 80 C 44.226563 80.046875 44.460938 80.0625 44.703125 80.0625 C 47.109375 80.0625 50 78 50 78 C 50 78 56.570313 80.515625 64.6875 80.515625 C 72.515625 80.515625 81.796875 78.171875 88 68.960938 C 92.726563 61.945313 93.953125 55.585938 94 50 C 94.132813 33.703125 80 24 80 24 C 80 24 81 18.5 80 18 C 79.398438 17.476563 78.421875 17.164063 77.125 17.164063 Z M 31.046875 18.015625 C 24.117188 18.015625 17.195313 20.648438 11.921875 25.921875 C 1.375 36.46875 1.375 53.632813 11.921875 64.179688 L 17.828125 70.078125 C 23.007813 75.257813 29.90625 78.007813 36.945313 78.007813 C 37.140625 78.007813 37.335938 77.984375 37.53125 77.976563 C 37.476563 77.835938 37.414063 77.695313 37.351563 77.546875 C 36.3125 74.65625 35.726563 70.84375 35.890625 66.40625 C 35.328125 66.171875 34.710938 66 34 66 C 31.992188 66 29.242188 66.71875 27.25 64.71875 C 24.773438 62.242188 27.984375 59.59375 25.226563 56.835938 C 22.476563 54.085938 20.25 57.734375 17.15625 54.632813 C 14.398438 51.882813 16 49.835938 16 48 C 16 46.09375 12.203125 43.796875 15 41 C 19.210938 36.789063 24.71875 47.28125 29 43 C 33.28125 38.71875 22.875 33.125 27 29 C 29.625 26.375 31.914063 30 34 30 C 35.84375 30 37.984375 28.476563 40.648438 31.140625 C 43.742188 34.242188 40.09375 36.460938 42.84375 39.21875 C 43.375 39.742188 43.90625 40.054688 44.429688 40.21875 C 45.140625 39.046875 45.890625 37.875 46.710938 36.6875 C 48.828125 33.609375 50.882813 30.945313 52.875 28.625 L 50.171875 25.921875 C 44.898438 20.648438 37.976563 18.015625 31.046875 18.015625 Z M 71.8125 28.007813 C 72.59375 27.9375 73.375 28.328125 73.757813 29.054688 C 74.28125 30.03125 73.914063 31.242188 72.945313 31.757813 C 70.15625 33.257813 62 39.226563 57.835938 48.796875 C 57.507813 49.554688 56.765625 50 56 50 C 55.726563 50 55.460938 49.945313 55.203125 49.835938 C 54.1875 49.390625 53.726563 48.210938 54.164063 47.195313 C 58.625 36.96875 67.164063 30.320313 71.054688 28.234375 C 71.296875 28.101563 71.554688 28.03125 71.8125 28.007813 Z M 79.9375 34 C 82.195313 33.835938 85.742188 38.617188 86.578125 40.539063 C 87.015625 41.554688 86.554688 42.734375 85.539063 43.171875 C 85.28125 43.28125 85.007813 43.34375 84.75 43.34375 C 83.96875 43.34375 83.234375 42.890625 82.90625 42.132813 C 82.210938 40.523438 80.203125 38.421875 79.46875 37.929688 C 78.648438 37.703125 78.03125 36.960938 78 36.0625 C 77.96875 34.953125 78.835938 34.03125 79.9375 34 Z M 72 40 C 72.507813 40 73.023438 40.195313 73.414063 40.585938 C 73.539063 40.710938 76.40625 43.632813 75.992188 48.179688 C 75.898438 49.21875 75.03125 50 74 50 C 73.945313 50 73.882813 50 73.820313 49.992188 C 72.71875 49.890625 71.90625 48.921875 72.007813 47.820313 C 72.25 45.164063 70.601563 43.429688 70.585938 43.414063 C 69.804688 42.632813 69.804688 41.367188 70.585938 40.585938 C 70.976563 40.195313 71.492188 40 72 40 Z M 81.65625 48.03125 C 82.421875 47.898438 83.21875 48.210938 83.671875 48.898438 C 83.765625 49.039063 85.984375 52.492188 84.65625 56.859375 C 84.398438 57.726563 83.609375 58.28125 82.75 58.28125 C 82.554688 58.28125 82.359375 58.25 82.164063 58.195313 C 81.109375 57.875 80.515625 56.757813 80.835938 55.695313 C 81.601563 53.164063 80.367188 51.164063 80.3125 51.085938 C 79.734375 50.15625 80 48.914063 80.929688 48.320313 C 81.15625 48.171875 81.40625 48.078125 81.65625 48.03125 Z M 66.820313 52.914063 C 67.882813 52.78125 68.90625 53.554688 69.039063 54.640625 C 69.0625 54.820313 69.539063 58.882813 66.421875 62.226563 C 66.03125 62.648438 65.492188 62.867188 64.960938 62.867188 C 64.476563 62.867188 63.984375 62.6875 63.59375 62.320313 C 62.789063 61.570313 62.742188 60.304688 63.5 59.5 C 65.296875 57.5625 65.078125 55.226563 65.0625 55.125 C 64.953125 54.03125 65.734375 53.046875 66.820313 52.914063 Z M 74.617188 61.257813 C 75.390625 61.273438 76.125 61.757813 76.429688 62.53125 C 77.101563 64.242188 75.546875 69.421875 73.367188 71.460938 C 72.984375 71.820313 72.492188 72 72 72 C 71.46875 72 70.929688 71.789063 70.539063 71.367188 C 69.78125 70.5625 69.828125 69.296875 70.632813 68.539063 C 71.710938 67.539063 72.570313 64.59375 72.601563 63.648438 C 72.414063 62.71875 72.914063 61.757813 73.835938 61.398438 C 74.085938 61.296875 74.351563 61.25 74.617188 61.257813 Z "/>
</g>
</svg>
