<?xml version="1.0" encoding="UTF-8"?>
<svg xmlns="http://www.w3.org/2000/svg" xmlns:xlink="http://www.w3.org/1999/xlink" width="96pt" height="96pt" viewBox="0 0 96 96" version="1.1">
<g id="surface1">
<path style=" stroke:none;fill-rule:nonzero;fill:#FFFFFF;fill-opacity:1;" d="M 12 12 L 12 22.96875 L 3 34.96875 L 3 36 C 3 40.933594 7.066406 45 12 45 L 12 84 L 60 84 L 60 57 L 66 57 L 66 84 L 84 84 L 84 45 C 88.933594 45 93 40.933594 93 36 L 93 34.96875 L 84 22.96875 L 84 12 Z M 18 18 L 78 18 L 78 21 L 18 21 Z M 16.5 27 L 79.5 27 L 86.71875 36.65625 C 86.390625 37.957031 85.40625 39 84 39 C 82.335938 39 81 37.664063 81 36 L 75 36 C 75 37.664063 73.664063 39 72 39 C 70.335938 39 69 37.664063 69 36 L 63 36 C 63 37.664063 61.664063 39 60 39 C 58.335938 39 57 37.664063 57 36 L 51 36 C 51 37.664063 49.664063 39 48 39 C 46.335938 39 45 37.664063 45 36 L 39 36 C 39 37.664063 37.664063 39 36 39 C 34.335938 39 33 37.664063 33 36 L 27 36 C 27 37.664063 25.664063 39 24 39 C 22.335938 39 21 37.664063 21 36 L 15 36 C 15 37.664063 13.664063 39 12 39 C 10.59375 39 9.609375 37.957031 9.28125 36.65625 Z M 18 42.65625 C 19.59375 44.097656 21.703125 45 24 45 C 26.296875 45 28.40625 44.097656 30 42.65625 C 31.59375 44.097656 33.703125 45 36 45 C 38.296875 45 40.40625 44.097656 42 42.65625 C 43.59375 44.097656 45.703125 45 48 45 C 50.296875 45 52.40625 44.097656 54 42.65625 C 55.59375 44.097656 57.703125 45 60 45 C 62.296875 45 64.40625 44.097656 66 42.65625 C 67.59375 44.097656 69.703125 45 72 45 C 74.296875 45 76.40625 44.097656 78 42.65625 L 78 78 L 72 78 L 72 51 L 54 51 L 54 78 L 18 78 Z M 24 51 L 24 72 L 48 72 L 48 51 Z M 30 57 L 42 57 L 42 66 L 30 66 Z "/>
</g>
</svg>
