<?xml version="1.0" encoding="UTF-8"?>
<svg xmlns="http://www.w3.org/2000/svg" xmlns:xlink="http://www.w3.org/1999/xlink" width="96pt" height="96pt" viewBox="0 0 96 96" version="1.1">
<g id="surface1">
<path style=" stroke:none;fill-rule:nonzero;fill:#FFFFFF;fill-opacity:1;" d="M 28.5 11.4375 L 27 12.84375 C 27 12.84375 15 23.777344 15 37.6875 C 15 53.542969 29.15625 60.46875 29.15625 60.46875 L 32.4375 62.0625 L 33.375 58.5 C 33.375 58.5 34.148438 55.265625 37.125 51.84375 C 40.101563 48.421875 45.023438 45 54 45 C 67.371094 45 76.699219 52.183594 79.59375 54.5625 C 77.285156 57.796875 68.683594 69 54 69 C 47.308594 69 42.832031 67.546875 40.125 66.375 C 43.992188 63.351563 48 61.640625 51.65625 60.65625 C 59.367188 58.582031 65.34375 59.90625 65.34375 59.90625 L 66.65625 54.09375 C 66.65625 54.09375 64.78125 53.636719 61.78125 53.53125 C 58.78125 53.425781 54.621094 53.625 50.0625 54.84375 C 40.945313 57.292969 29.976563 64.066406 22.875 79.78125 L 28.3125 82.21875 C 30.457031 77.460938 32.917969 73.746094 35.53125 70.78125 C 38.390625 72.234375 44.859375 75 54 75 C 74.671875 75 86.53125 55.59375 86.53125 55.59375 L 87.84375 53.53125 L 86.0625 51.84375 C 86.0625 51.84375 72.445313 39 54 39 C 50.695313 39 47.882813 39.492188 45.28125 40.21875 C 45.714844 37.59375 45.925781 34.511719 45.09375 30.65625 C 42.339844 17.789063 30.375 12.28125 30.375 12.28125 Z M 29.625 19.03125 C 31.980469 20.402344 37.5 23.976563 39.1875 31.875 C 40.03125 35.824219 39.726563 38.917969 39.1875 40.96875 C 38.648438 43.019531 38.0625 43.78125 38.0625 43.78125 C 36.058594 45.105469 33.9375 46.40625 32.625 47.90625 C 32.308594 48.269531 32.050781 48.667969 31.78125 49.03125 C 31.605469 47.261719 31.476563 45.480469 31.5 43.78125 C 31.546875 39.410156 31.96875 35.90625 31.96875 35.90625 L 26.0625 35.0625 C 26.0625 35.0625 25.558594 38.90625 25.5 43.6875 C 25.476563 45.761719 25.558594 48.070313 25.78125 50.34375 C 23.332031 47.859375 21 43.96875 21 37.6875 C 21 28.957031 27.445313 21.421875 29.625 19.03125 Z "/>
</g>
</svg>
